# xmcd
#
# Track frame offsets:
#        150
#        17555
#        34110
#        52225
#        66910
#        86250
#        116645
#        134765
#        150032
#        188292
#        207137
#        226770
#        242662
#        269702
#        289092
#
# Disc length: 4201 seconds
#
# Revision: 0
# Processed by: cddbd v1.5.1PL2 Copyright (c) Steve Scherf et al.
# Submitted via: ExactAudioCopy v0.95b1
#
DISCID=c810670f
DTITLE=Various Artist - DANCE WITH KALIMBA
DYEAR=1994
DGENRE=Dance
TTITLE0=SERPENTINE FIRE
TTITLE1=BEST OF MY LOVE
TTITLE2=I DON'T WANNA LOSE YOUR LOVE
TTITLE3=SMILE
TTITLE4=I SHOULD BE DANCING
TTITLE5=CHARISMA
TTITLE6=NOTHING IS STRONGER
TTITLE7=SUNNY SIDE UP
TTITLE8=SUN GODDESS
TTITLE9=BABY BABY, MY LOVE'S ALL FOR YOU
TTITLE10=IT'S IMPORTANT TO ME
TTITLE11=WHEN LOVE COMES CALLING
TTITLE12=ALL MY LOVE
TTITLE13=WHEREVER YOU ARE
TTITLE14=THAT'S THE WAY OF THE WORLD
EXTD=
EXTT0=
EXTT1=
EXTT2=
EXTT3=
EXTT4=
EXTT5=
EXTT6=
EXTT7=
EXTT8=
EXTT9=
EXTT10=
EXTT11=
EXTT12=
EXTT13=
EXTT14=
PLAYORDER=
